<?xml version="1.0" encoding="utf-8" standalone="no"?>
<!DOCTYPE svg PUBLIC "-//W3C//DTD SVG 1.1//EN"
  "http://www.w3.org/Graphics/SVG/1.1/DTD/svg11.dtd">
<svg height="349.757905pt" version="1.1" viewBox="0 0 828.783371 349.757905" width="828.783371pt" xmlns="http://www.w3.org/2000/svg" xmlns:xlink="http://www.w3.org/1999/xlink">
 <metadata>
  <rdf:RDF xmlns:cc="http://creativecommons.org/ns#" xmlns:dc="http://purl.org/dc/elements/1.1/" xmlns:rdf="http://www.w3.org/1999/02/22-rdf-syntax-ns#">
   <cc:Work>
    <dc:type rdf:resource="http://purl.org/dc/dcmitype/StillImage"/>
    <dc:date>2021-11-09T17:44:35.251978</dc:date>
    <dc:format>image/svg+xml</dc:format>
    <dc:creator>
     <cc:Agent>
      <dc:title>Matplotlib v3.4.3, https://matplotlib.org/</dc:title>
     </cc:Agent>
    </dc:creator>
   </cc:Work>
  </rdf:RDF>
 </metadata>
 <defs>
  <style type="text/css">*{stroke-linecap:butt;stroke-linejoin:round;}</style>
 </defs>
 <g id="figure_1">
  <g id="patch_1">
   <path d="M 0 349.757905 
L 828.783371 349.757905 
L 828.783371 0 
L 0 0 
z
" style="fill:none;"/>
  </g>
  <g id="axes_1">
   <g id="patch_2">
    <path d="M 43.983371 329.76 
L 399.07428 329.76 
L 399.07428 3.6 
L 43.983371 3.6 
z
" style="fill:#ffffff;"/>
   </g>
   <g id="patch_3">
    <path clip-path="url(#p6dc2f69771)" d="M 48.422007 329.76 
L 83.931098 329.76 
L 83.931098 129.879134 
L 48.422007 129.879134 
z
" style="fill:#519b64;"/>
   </g>
   <g id="patch_4">
    <path clip-path="url(#p6dc2f69771)" d="M 92.808371 329.76 
L 128.317462 329.76 
L 128.317462 123.950944 
L 92.808371 123.950944 
z
" style="fill:#69aa77;"/>
   </g>
   <g id="patch_5">
    <path clip-path="url(#p6dc2f69771)" d="M 137.194734 329.76 
L 172.703825 329.76 
L 172.703825 146.921508 
L 137.194734 146.921508 
z
" style="fill:#3b5d44;"/>
   </g>
   <g id="patch_6">
    <path clip-path="url(#p6dc2f69771)" d="M 181.581098 329.76 
L 217.090189 329.76 
L 217.090189 142.372839 
L 181.581098 142.372839 
z
" style="fill:#3e734d;"/>
   </g>
   <g id="patch_7">
    <path clip-path="url(#p6dc2f69771)" d="M 225.967462 329.76 
L 261.476553 329.76 
L 261.476553 159.393131 
L 225.967462 159.393131 
z
" style="fill:#37483c;"/>
   </g>
   <g id="patch_8">
    <path clip-path="url(#p6dc2f69771)" d="M 270.353825 329.76 
L 305.862916 329.76 
L 305.862916 58.73672 
L 270.353825 58.73672 
z
" style="fill:#9bc99c;"/>
   </g>
   <g id="patch_9">
    <path clip-path="url(#p6dc2f69771)" d="M 314.740189 329.76 
L 350.24928 329.76 
L 350.24928 101.489209 
L 314.740189 101.489209 
z
" style="fill:#83ba8a;"/>
   </g>
   <g id="patch_10">
    <path clip-path="url(#p6dc2f69771)" d="M 359.126553 329.76 
L 394.635643 329.76 
L 394.635643 131.14499 
L 359.126553 131.14499 
z
" style="fill:#428856;"/>
   </g>
   <g id="matplotlib.axis_1">
    <g id="text_1">
     <!-- Features -->
     <g transform="translate(196.359462 343.445876)scale(0.14 -0.14)">
      <defs>
       <path d="M 3482 4339 
L 326 4339 
L 326 4172 
C 768 4172 838 4172 838 3883 
L 838 450 
C 838 166 768 166 326 166 
L 326 0 
C 512 12 870 12 1069 12 
C 1331 12 1638 12 1901 0 
L 1901 166 
L 1760 166 
C 1274 166 1261 229 1261 456 
L 1261 2073 
L 1837 2073 
C 2432 2073 2490 1865 2490 1334 
L 2605 1334 
L 2605 2991 
L 2490 2991 
C 2490 2451 2432 2240 1837 2240 
L 1261 2240 
L 1261 3922 
C 1261 4140 1274 4172 1530 4172 
L 2355 4172 
C 3322 4172 3430 3774 3520 2920 
L 3635 2920 
L 3482 4339 
z
" id="CMR17-46" transform="scale(0.015625)"/>
       <path d="M 2438 1503 
C 2464 1529 2464 1542 2464 1606 
C 2464 2251 2118 2816 1389 2816 
C 710 2816 173 2175 173 1394 
C 173 554 781 -64 1459 -64 
C 2176 -64 2458 619 2458 755 
C 2458 800 2419 800 2406 800 
C 2362 800 2355 787 2330 709 
C 2189 270 1837 51 1504 51 
C 1229 51 954 206 781 490 
C 582 819 582 1200 582 1503 
L 2438 1503 
z
M 589 1600 
C 634 2511 1126 2713 1382 2713 
C 1818 2713 2112 2308 2118 1600 
L 589 1600 
z
" id="CMR17-65" transform="scale(0.015625)"/>
       <path d="M 2304 1656 
C 2304 2048 2304 2275 2035 2534 
C 1798 2751 1523 2816 1306 2816 
C 800 2816 435 2408 435 1977 
C 435 1740 627 1728 666 1728 
C 749 1728 896 1779 896 1958 
C 896 2118 774 2188 666 2188 
C 640 2188 608 2182 589 2176 
C 723 2594 1069 2713 1293 2713 
C 1613 2713 1965 2421 1965 1875 
L 1965 1632 
C 1587 1619 1133 1568 774 1373 
C 371 1147 256 822 256 576 
C 256 77 832 -64 1171 -64 
C 1523 -64 1850 135 1990 505 
C 2003 219 2182 -39 2464 -39 
C 2598 -39 2938 51 2938 563 
L 2938 926 
L 2822 926 
L 2822 557 
C 2822 161 2650 109 2566 109 
C 2304 109 2304 446 2304 732 
L 2304 1656 
z
M 1965 887 
C 1965 323 1568 38 1216 38 
C 896 38 646 278 646 576 
C 646 771 730 1114 1101 1322 
C 1408 1497 1760 1523 1965 1536 
L 1965 887 
z
" id="CMR17-61" transform="scale(0.015625)"/>
       <path d="M 966 2585 
L 1862 2585 
L 1862 2752 
L 966 2752 
L 966 3968 
L 851 3968 
C 838 3292 614 2700 70 2687 
L 70 2585 
L 627 2585 
L 627 778 
C 627 655 627 -64 1370 -64 
C 1747 -64 1965 308 1965 784 
L 1965 1151 
L 1850 1151 
L 1850 790 
C 1850 347 1677 51 1408 51 
C 1222 51 966 179 966 765 
L 966 2585 
z
" id="CMR17-74" transform="scale(0.015625)"/>
       <path d="M 1882 2745 
L 1882 2579 
C 2259 2579 2317 2540 2317 2229 
L 2317 1053 
C 2317 510 2029 38 1555 38 
C 1030 38 986 355 986 691 
L 986 2816 
L 211 2745 
L 211 2579 
C 467 2579 640 2579 646 2320 
L 646 1079 
C 646 646 646 368 813 187 
C 896 103 1056 -64 1517 -64 
C 2061 -64 2272 400 2323 536 
L 2330 536 
L 2330 -64 
L 3091 -13 
L 3091 154 
C 2714 154 2656 193 2656 503 
L 2656 2816 
L 1882 2745 
z
" id="CMR17-75" transform="scale(0.015625)"/>
       <path d="M 960 1517 
C 960 2134 1222 2713 1702 2713 
C 1747 2713 1792 2707 1837 2687 
C 1837 2687 1696 2642 1696 2475 
C 1696 2321 1818 2257 1914 2257 
C 1990 2257 2131 2302 2131 2482 
C 2131 2687 1926 2816 1709 2816 
C 1222 2816 1011 2340 947 2115 
L 941 2115 
L 941 2816 
L 198 2745 
L 198 2578 
C 576 2578 634 2540 634 2231 
L 634 443 
C 634 198 608 166 198 166 
L 198 0 
C 352 12 646 12 813 12 
C 998 12 1325 12 1498 0 
L 1498 166 
C 1037 166 960 166 960 455 
L 960 1517 
z
" id="CMR17-72" transform="scale(0.015625)"/>
       <path d="M 1978 2688 
C 1978 2803 1971 2809 1933 2809 
C 1907 2809 1901 2803 1824 2707 
C 1805 2681 1747 2617 1728 2592 
C 1523 2809 1235 2816 1126 2816 
C 416 2816 160 2444 160 2073 
C 160 1497 813 1363 998 1324 
C 1402 1241 1542 1216 1677 1100 
C 1760 1024 1901 883 1901 652 
C 1901 384 1747 38 1158 38 
C 602 38 403 460 288 1024 
C 269 1113 269 1120 218 1120 
C 166 1120 160 1113 160 985 
L 160 64 
C 160 -52 166 -58 205 -58 
C 237 -58 243 -52 275 0 
C 314 57 410 211 448 275 
C 576 102 800 -64 1158 -64 
C 1792 -64 2131 281 2131 780 
C 2131 1107 1958 1280 1875 1356 
C 1683 1555 1459 1600 1190 1651 
C 838 1728 390 1817 390 2208 
C 390 2374 480 2726 1126 2726 
C 1811 2726 1850 2086 1862 1881 
C 1869 1849 1901 1843 1920 1843 
C 1978 1843 1978 1862 1978 1971 
L 1978 2688 
z
" id="CMR17-73" transform="scale(0.015625)"/>
      </defs>
      <use transform="scale(0.996264)" xlink:href="#CMR17-46"/>
      <use transform="translate(52.176591 0)scale(0.996264)" xlink:href="#CMR17-65"/>
      <use transform="translate(92.662252 0)scale(0.996264)" xlink:href="#CMR17-61"/>
      <use transform="translate(138.352729 0)scale(0.996264)" xlink:href="#CMR17-74"/>
      <use transform="translate(173.633497 0)scale(0.996264)" xlink:href="#CMR17-75"/>
      <use transform="translate(224.528866 0)scale(0.996264)" xlink:href="#CMR17-72"/>
      <use transform="translate(259.809634 0)scale(0.996264)" xlink:href="#CMR17-65"/>
      <use transform="translate(300.295295 0)scale(0.996264)" xlink:href="#CMR17-73"/>
     </g>
    </g>
   </g>
   <g id="matplotlib.axis_2">
    <g id="ytick_1">
     <g id="line2d_1">
      <path clip-path="url(#p6dc2f69771)" d="M 43.983371 329.76 
L 399.07428 329.76 
" style="fill:none;stroke:#000000;stroke-dasharray:0.5,0.825;stroke-dashoffset:0;stroke-opacity:0.5;stroke-width:0.5;"/>
     </g>
     <g id="line2d_2">
      <defs>
       <path d="M 0 0 
L 3 0 
" id="m7ffb2b6520" style="stroke:#000000;stroke-width:0.5;"/>
      </defs>
      <g>
       <use style="stroke:#000000;stroke-width:0.5;" x="43.983371" xlink:href="#m7ffb2b6520" y="329.76"/>
      </g>
     </g>
     <g id="line2d_3">
      <defs>
       <path d="M 0 0 
L -3 0 
" id="m0151e8d51c" style="stroke:#000000;stroke-width:0.5;"/>
      </defs>
      <g>
       <use style="stroke:#000000;stroke-width:0.5;" x="399.07428" xlink:href="#m0151e8d51c" y="329.76"/>
      </g>
     </g>
     <g id="text_2">
      <!-- $\mathdefault{0}$ -->
      <g transform="translate(33.654882 334.602938)scale(0.14 -0.14)">
       <defs>
        <path d="M 2688 2038 
C 2688 2430 2682 3099 2413 3613 
C 2176 4063 1798 4224 1466 4224 
C 1158 4224 768 4082 525 3620 
C 269 3137 243 2539 243 2038 
C 243 1671 250 1112 448 623 
C 723 -39 1216 -128 1466 -128 
C 1760 -128 2208 -7 2470 604 
C 2662 1048 2688 1568 2688 2038 
z
M 1466 -26 
C 1056 -26 813 328 723 816 
C 653 1196 653 1749 653 2109 
C 653 2604 653 3015 736 3407 
C 858 3954 1216 4121 1466 4121 
C 1728 4121 2067 3947 2189 3420 
C 2272 3054 2278 2623 2278 2109 
C 2278 1691 2278 1176 2202 797 
C 2067 96 1690 -26 1466 -26 
z
" id="CMR17-30" transform="scale(0.015625)"/>
       </defs>
       <use transform="scale(0.996264)" xlink:href="#CMR17-30"/>
      </g>
     </g>
    </g>
    <g id="ytick_2">
     <g id="line2d_4">
      <path clip-path="url(#p6dc2f69771)" d="M 43.983371 274.62328 
L 399.07428 274.62328 
" style="fill:none;stroke:#000000;stroke-dasharray:0.5,0.825;stroke-dashoffset:0;stroke-opacity:0.5;stroke-width:0.5;"/>
     </g>
     <g id="line2d_5">
      <g>
       <use style="stroke:#000000;stroke-width:0.5;" x="43.983371" xlink:href="#m7ffb2b6520" y="274.62328"/>
      </g>
     </g>
     <g id="line2d_6">
      <g>
       <use style="stroke:#000000;stroke-width:0.5;" x="399.07428" xlink:href="#m0151e8d51c" y="274.62328"/>
      </g>
     </g>
     <g id="text_3">
      <!-- $\mathdefault{20}$ -->
      <g transform="translate(26.826393 279.466218)scale(0.14 -0.14)">
       <defs>
        <path d="M 2669 990 
L 2554 990 
C 2490 537 2438 460 2413 422 
C 2381 371 1920 371 1830 371 
L 602 371 
C 832 620 1280 1073 1824 1596 
C 2214 1966 2669 2400 2669 3033 
C 2669 3788 2067 4224 1395 4224 
C 691 4224 262 3603 262 3027 
C 262 2777 448 2745 525 2745 
C 589 2745 781 2783 781 3007 
C 781 3206 614 3264 525 3264 
C 486 3264 448 3257 422 3244 
C 544 3788 915 4057 1306 4057 
C 1862 4057 2227 3616 2227 3033 
C 2227 2477 1901 1998 1536 1583 
L 262 147 
L 262 0 
L 2515 0 
L 2669 990 
z
" id="CMR17-32" transform="scale(0.015625)"/>
       </defs>
       <use transform="scale(0.996264)" xlink:href="#CMR17-32"/>
       <use transform="translate(45.690477 0)scale(0.996264)" xlink:href="#CMR17-30"/>
      </g>
     </g>
    </g>
    <g id="ytick_3">
     <g id="line2d_7">
      <path clip-path="url(#p6dc2f69771)" d="M 43.983371 219.48656 
L 399.07428 219.48656 
" style="fill:none;stroke:#000000;stroke-dasharray:0.5,0.825;stroke-dashoffset:0;stroke-opacity:0.5;stroke-width:0.5;"/>
     </g>
     <g id="line2d_8">
      <g>
       <use style="stroke:#000000;stroke-width:0.5;" x="43.983371" xlink:href="#m7ffb2b6520" y="219.48656"/>
      </g>
     </g>
     <g id="line2d_9">
      <g>
       <use style="stroke:#000000;stroke-width:0.5;" x="399.07428" xlink:href="#m0151e8d51c" y="219.48656"/>
      </g>
     </g>
     <g id="text_4">
      <!-- $\mathdefault{40}$ -->
      <g transform="translate(26.826393 224.329498)scale(0.14 -0.14)">
       <defs>
        <path d="M 2150 4147 
C 2150 4281 2144 4288 2029 4288 
L 128 1254 
L 128 1088 
L 1779 1088 
L 1779 460 
C 1779 230 1766 166 1318 166 
L 1197 166 
L 1197 0 
C 1402 12 1747 12 1965 12 
C 2182 12 2528 12 2733 0 
L 2733 166 
L 2611 166 
C 2163 166 2150 230 2150 460 
L 2150 1088 
L 2803 1088 
L 2803 1254 
L 2150 1254 
L 2150 4147 
z
M 1798 3723 
L 1798 1254 
L 256 1254 
L 1798 3723 
z
" id="CMR17-34" transform="scale(0.015625)"/>
       </defs>
       <use transform="scale(0.996264)" xlink:href="#CMR17-34"/>
       <use transform="translate(45.690477 0)scale(0.996264)" xlink:href="#CMR17-30"/>
      </g>
     </g>
    </g>
    <g id="ytick_4">
     <g id="line2d_10">
      <path clip-path="url(#p6dc2f69771)" d="M 43.983371 164.34984 
L 399.07428 164.34984 
" style="fill:none;stroke:#000000;stroke-dasharray:0.5,0.825;stroke-dashoffset:0;stroke-opacity:0.5;stroke-width:0.5;"/>
     </g>
     <g id="line2d_11">
      <g>
       <use style="stroke:#000000;stroke-width:0.5;" x="43.983371" xlink:href="#m7ffb2b6520" y="164.34984"/>
      </g>
     </g>
     <g id="line2d_12">
      <g>
       <use style="stroke:#000000;stroke-width:0.5;" x="399.07428" xlink:href="#m0151e8d51c" y="164.34984"/>
      </g>
     </g>
     <g id="text_5">
      <!-- $\mathdefault{60}$ -->
      <g transform="translate(26.826393 169.192778)scale(0.14 -0.14)">
       <defs>
        <path d="M 678 2198 
C 678 3712 1395 4076 1811 4076 
C 1946 4076 2272 4049 2400 3782 
C 2298 3782 2106 3782 2106 3558 
C 2106 3385 2246 3328 2336 3328 
C 2394 3328 2566 3353 2566 3571 
C 2566 3987 2246 4224 1805 4224 
C 1043 4224 243 3411 243 2011 
C 243 257 966 -128 1478 -128 
C 2099 -128 2688 431 2688 1295 
C 2688 2101 2170 2688 1517 2688 
C 1126 2688 838 2430 678 1979 
L 678 2198 
z
M 1478 25 
C 691 25 691 1212 691 1450 
C 691 1914 909 2585 1504 2585 
C 1613 2585 1926 2585 2138 2140 
C 2253 1889 2253 1624 2253 1302 
C 2253 954 2253 696 2118 438 
C 1978 173 1773 25 1478 25 
z
" id="CMR17-36" transform="scale(0.015625)"/>
       </defs>
       <use transform="scale(0.996264)" xlink:href="#CMR17-36"/>
       <use transform="translate(45.690477 0)scale(0.996264)" xlink:href="#CMR17-30"/>
      </g>
     </g>
    </g>
    <g id="ytick_5">
     <g id="line2d_13">
      <path clip-path="url(#p6dc2f69771)" d="M 43.983371 109.213119 
L 399.07428 109.213119 
" style="fill:none;stroke:#000000;stroke-dasharray:0.5,0.825;stroke-dashoffset:0;stroke-opacity:0.5;stroke-width:0.5;"/>
     </g>
     <g id="line2d_14">
      <g>
       <use style="stroke:#000000;stroke-width:0.5;" x="43.983371" xlink:href="#m7ffb2b6520" y="109.213119"/>
      </g>
     </g>
     <g id="line2d_15">
      <g>
       <use style="stroke:#000000;stroke-width:0.5;" x="399.07428" xlink:href="#m0151e8d51c" y="109.213119"/>
      </g>
     </g>
     <g id="text_6">
      <!-- $\mathdefault{80}$ -->
      <g transform="translate(26.826393 114.056058)scale(0.14 -0.14)">
       <defs>
        <path d="M 1741 2289 
C 2144 2494 2554 2803 2554 3298 
C 2554 3884 1990 4224 1472 4224 
C 890 4224 378 3800 378 3215 
C 378 3054 416 2777 666 2533 
C 730 2469 998 2276 1171 2154 
C 883 2006 211 1652 211 945 
C 211 282 838 -128 1459 -128 
C 2144 -128 2720 366 2720 1022 
C 2720 1607 2330 1877 2074 2051 
L 1741 2289 
z
M 902 2855 
C 851 2887 595 3086 595 3388 
C 595 3781 998 4076 1459 4076 
C 1965 4076 2336 3716 2336 3298 
C 2336 2700 1670 2359 1638 2359 
C 1632 2359 1626 2359 1574 2398 
L 902 2855 
z
M 2080 1536 
C 2176 1466 2483 1253 2483 861 
C 2483 385 2010 25 1472 25 
C 890 25 448 443 448 951 
C 448 1459 838 1884 1280 2083 
L 2080 1536 
z
" id="CMR17-38" transform="scale(0.015625)"/>
       </defs>
       <use transform="scale(0.996264)" xlink:href="#CMR17-38"/>
       <use transform="translate(45.690477 0)scale(0.996264)" xlink:href="#CMR17-30"/>
      </g>
     </g>
    </g>
    <g id="ytick_6">
     <g id="line2d_16">
      <path clip-path="url(#p6dc2f69771)" d="M 43.983371 54.076399 
L 399.07428 54.076399 
" style="fill:none;stroke:#000000;stroke-dasharray:0.5,0.825;stroke-dashoffset:0;stroke-opacity:0.5;stroke-width:0.5;"/>
     </g>
     <g id="line2d_17">
      <g>
       <use style="stroke:#000000;stroke-width:0.5;" x="43.983371" xlink:href="#m7ffb2b6520" y="54.076399"/>
      </g>
     </g>
     <g id="line2d_18">
      <g>
       <use style="stroke:#000000;stroke-width:0.5;" x="399.07428" xlink:href="#m0151e8d51c" y="54.076399"/>
      </g>
     </g>
     <g id="text_7">
      <!-- $\mathdefault{100}$ -->
      <g transform="translate(19.997905 58.919337)scale(0.14 -0.14)">
       <defs>
        <path d="M 1702 4083 
C 1702 4217 1696 4224 1606 4224 
C 1357 3927 979 3833 621 3820 
C 602 3820 570 3820 563 3808 
C 557 3795 557 3782 557 3648 
C 755 3648 1088 3686 1344 3839 
L 1344 467 
C 1344 243 1331 166 781 166 
L 589 166 
L 589 0 
C 896 6 1216 12 1523 12 
C 1830 12 2150 6 2458 0 
L 2458 166 
L 2266 166 
C 1715 166 1702 236 1702 467 
L 1702 4083 
z
" id="CMR17-31" transform="scale(0.015625)"/>
       </defs>
       <use transform="scale(0.996264)" xlink:href="#CMR17-31"/>
       <use transform="translate(45.690477 0)scale(0.996264)" xlink:href="#CMR17-30"/>
       <use transform="translate(91.380954 0)scale(0.996264)" xlink:href="#CMR17-30"/>
      </g>
     </g>
    </g>
    <g id="ytick_7">
     <g id="line2d_19">
      <defs>
       <path d="M 0 0 
L 1.5 0 
" id="m695846ed5a" style="stroke:#000000;stroke-width:0.5;"/>
      </defs>
      <g>
       <use style="stroke:#000000;stroke-width:0.5;" x="43.983371" xlink:href="#m695846ed5a" y="315.97582"/>
      </g>
     </g>
     <g id="line2d_20">
      <defs>
       <path d="M 0 0 
L -1.5 0 
" id="m49f4a158b1" style="stroke:#000000;stroke-width:0.5;"/>
      </defs>
      <g>
       <use style="stroke:#000000;stroke-width:0.5;" x="399.07428" xlink:href="#m49f4a158b1" y="315.97582"/>
      </g>
     </g>
    </g>
    <g id="ytick_8">
     <g id="line2d_21">
      <g>
       <use style="stroke:#000000;stroke-width:0.5;" x="43.983371" xlink:href="#m695846ed5a" y="302.19164"/>
      </g>
     </g>
     <g id="line2d_22">
      <g>
       <use style="stroke:#000000;stroke-width:0.5;" x="399.07428" xlink:href="#m49f4a158b1" y="302.19164"/>
      </g>
     </g>
    </g>
    <g id="ytick_9">
     <g id="line2d_23">
      <g>
       <use style="stroke:#000000;stroke-width:0.5;" x="43.983371" xlink:href="#m695846ed5a" y="288.40746"/>
      </g>
     </g>
     <g id="line2d_24">
      <g>
       <use style="stroke:#000000;stroke-width:0.5;" x="399.07428" xlink:href="#m49f4a158b1" y="288.40746"/>
      </g>
     </g>
    </g>
    <g id="ytick_10">
     <g id="line2d_25">
      <g>
       <use style="stroke:#000000;stroke-width:0.5;" x="43.983371" xlink:href="#m695846ed5a" y="260.8391"/>
      </g>
     </g>
     <g id="line2d_26">
      <g>
       <use style="stroke:#000000;stroke-width:0.5;" x="399.07428" xlink:href="#m49f4a158b1" y="260.8391"/>
      </g>
     </g>
    </g>
    <g id="ytick_11">
     <g id="line2d_27">
      <g>
       <use style="stroke:#000000;stroke-width:0.5;" x="43.983371" xlink:href="#m695846ed5a" y="247.05492"/>
      </g>
     </g>
     <g id="line2d_28">
      <g>
       <use style="stroke:#000000;stroke-width:0.5;" x="399.07428" xlink:href="#m49f4a158b1" y="247.05492"/>
      </g>
     </g>
    </g>
    <g id="ytick_12">
     <g id="line2d_29">
      <g>
       <use style="stroke:#000000;stroke-width:0.5;" x="43.983371" xlink:href="#m695846ed5a" y="233.27074"/>
      </g>
     </g>
     <g id="line2d_30">
      <g>
       <use style="stroke:#000000;stroke-width:0.5;" x="399.07428" xlink:href="#m49f4a158b1" y="233.27074"/>
      </g>
     </g>
    </g>
    <g id="ytick_13">
     <g id="line2d_31">
      <g>
       <use style="stroke:#000000;stroke-width:0.5;" x="43.983371" xlink:href="#m695846ed5a" y="205.70238"/>
      </g>
     </g>
     <g id="line2d_32">
      <g>
       <use style="stroke:#000000;stroke-width:0.5;" x="399.07428" xlink:href="#m49f4a158b1" y="205.70238"/>
      </g>
     </g>
    </g>
    <g id="ytick_14">
     <g id="line2d_33">
      <g>
       <use style="stroke:#000000;stroke-width:0.5;" x="43.983371" xlink:href="#m695846ed5a" y="191.9182"/>
      </g>
     </g>
     <g id="line2d_34">
      <g>
       <use style="stroke:#000000;stroke-width:0.5;" x="399.07428" xlink:href="#m49f4a158b1" y="191.9182"/>
      </g>
     </g>
    </g>
    <g id="ytick_15">
     <g id="line2d_35">
      <g>
       <use style="stroke:#000000;stroke-width:0.5;" x="43.983371" xlink:href="#m695846ed5a" y="178.13402"/>
      </g>
     </g>
     <g id="line2d_36">
      <g>
       <use style="stroke:#000000;stroke-width:0.5;" x="399.07428" xlink:href="#m49f4a158b1" y="178.13402"/>
      </g>
     </g>
    </g>
    <g id="ytick_16">
     <g id="line2d_37">
      <g>
       <use style="stroke:#000000;stroke-width:0.5;" x="43.983371" xlink:href="#m695846ed5a" y="150.565659"/>
      </g>
     </g>
     <g id="line2d_38">
      <g>
       <use style="stroke:#000000;stroke-width:0.5;" x="399.07428" xlink:href="#m49f4a158b1" y="150.565659"/>
      </g>
     </g>
    </g>
    <g id="ytick_17">
     <g id="line2d_39">
      <g>
       <use style="stroke:#000000;stroke-width:0.5;" x="43.983371" xlink:href="#m695846ed5a" y="136.781479"/>
      </g>
     </g>
     <g id="line2d_40">
      <g>
       <use style="stroke:#000000;stroke-width:0.5;" x="399.07428" xlink:href="#m49f4a158b1" y="136.781479"/>
      </g>
     </g>
    </g>
    <g id="ytick_18">
     <g id="line2d_41">
      <g>
       <use style="stroke:#000000;stroke-width:0.5;" x="43.983371" xlink:href="#m695846ed5a" y="122.997299"/>
      </g>
     </g>
     <g id="line2d_42">
      <g>
       <use style="stroke:#000000;stroke-width:0.5;" x="399.07428" xlink:href="#m49f4a158b1" y="122.997299"/>
      </g>
     </g>
    </g>
    <g id="ytick_19">
     <g id="line2d_43">
      <g>
       <use style="stroke:#000000;stroke-width:0.5;" x="43.983371" xlink:href="#m695846ed5a" y="95.428939"/>
      </g>
     </g>
     <g id="line2d_44">
      <g>
       <use style="stroke:#000000;stroke-width:0.5;" x="399.07428" xlink:href="#m49f4a158b1" y="95.428939"/>
      </g>
     </g>
    </g>
    <g id="ytick_20">
     <g id="line2d_45">
      <g>
       <use style="stroke:#000000;stroke-width:0.5;" x="43.983371" xlink:href="#m695846ed5a" y="81.644759"/>
      </g>
     </g>
     <g id="line2d_46">
      <g>
       <use style="stroke:#000000;stroke-width:0.5;" x="399.07428" xlink:href="#m49f4a158b1" y="81.644759"/>
      </g>
     </g>
    </g>
    <g id="ytick_21">
     <g id="line2d_47">
      <g>
       <use style="stroke:#000000;stroke-width:0.5;" x="43.983371" xlink:href="#m695846ed5a" y="67.860579"/>
      </g>
     </g>
     <g id="line2d_48">
      <g>
       <use style="stroke:#000000;stroke-width:0.5;" x="399.07428" xlink:href="#m49f4a158b1" y="67.860579"/>
      </g>
     </g>
    </g>
    <g id="ytick_22">
     <g id="line2d_49">
      <g>
       <use style="stroke:#000000;stroke-width:0.5;" x="43.983371" xlink:href="#m695846ed5a" y="40.292219"/>
      </g>
     </g>
     <g id="line2d_50">
      <g>
       <use style="stroke:#000000;stroke-width:0.5;" x="399.07428" xlink:href="#m49f4a158b1" y="40.292219"/>
      </g>
     </g>
    </g>
    <g id="ytick_23">
     <g id="line2d_51">
      <g>
       <use style="stroke:#000000;stroke-width:0.5;" x="43.983371" xlink:href="#m695846ed5a" y="26.508039"/>
      </g>
     </g>
     <g id="line2d_52">
      <g>
       <use style="stroke:#000000;stroke-width:0.5;" x="399.07428" xlink:href="#m49f4a158b1" y="26.508039"/>
      </g>
     </g>
    </g>
    <g id="ytick_24">
     <g id="line2d_53">
      <g>
       <use style="stroke:#000000;stroke-width:0.5;" x="43.983371" xlink:href="#m695846ed5a" y="12.723859"/>
      </g>
     </g>
     <g id="line2d_54">
      <g>
       <use style="stroke:#000000;stroke-width:0.5;" x="399.07428" xlink:href="#m49f4a158b1" y="12.723859"/>
      </g>
     </g>
    </g>
    <g id="text_8">
     <!-- Mean Decrease Accuracy -->
     <g transform="translate(13.285876 241.540752)rotate(-90)scale(0.14 -0.14)">
      <defs>
       <path d="M 1338 4249 
C 1299 4345 1293 4352 1158 4352 
L 339 4352 
L 339 4185 
C 781 4185 851 4185 851 3898 
L 851 624 
C 851 465 851 166 339 166 
L 339 0 
C 486 12 755 12 915 12 
C 1075 12 1344 12 1491 0 
L 1491 166 
C 979 166 979 465 979 624 
L 979 4159 
L 986 4159 
L 2490 102 
C 2515 38 2528 0 2579 0 
C 2630 0 2643 38 2669 102 
L 4186 4191 
L 4192 4191 
L 4192 453 
C 4192 166 4122 166 3680 166 
L 3680 0 
C 3853 12 4198 12 4384 12 
C 4570 12 4922 12 5094 0 
L 5094 166 
C 4653 166 4582 166 4582 453 
L 4582 3898 
C 4582 4185 4653 4185 5094 4185 
L 5094 4352 
L 4282 4352 
C 4147 4352 4141 4345 4102 4249 
L 2720 516 
L 1338 4249 
z
" id="CMR17-4d" transform="scale(0.015625)"/>
       <path d="M 2656 1954 
C 2656 2282 2592 2816 1837 2816 
C 1331 2816 1069 2424 973 2166 
L 966 2166 
L 966 2816 
L 211 2745 
L 211 2578 
C 589 2578 646 2540 646 2231 
L 646 443 
C 646 198 621 166 211 166 
L 211 0 
C 365 12 646 12 813 12 
C 979 12 1267 12 1421 0 
L 1421 166 
C 1011 166 986 192 986 443 
L 986 1678 
C 986 2269 1344 2713 1792 2713 
C 2266 2713 2317 2289 2317 1980 
L 2317 443 
C 2317 198 2291 166 1882 166 
L 1882 0 
C 2035 12 2317 12 2483 12 
C 2650 12 2938 12 3091 0 
L 3091 166 
C 2682 166 2656 192 2656 443 
L 2656 1954 
z
" id="CMR17-6e" transform="scale(0.015625)"/>
       <path d="M 333 4352 
L 333 4185 
C 774 4185 845 4185 845 3898 
L 845 453 
C 845 166 774 166 333 166 
L 333 0 
L 2368 0 
C 3398 0 4224 943 4224 2140 
C 4224 3344 3411 4352 2368 4352 
L 333 4352 
z
M 1523 166 
C 1267 166 1254 198 1254 414 
L 1254 3936 
C 1254 4153 1267 4185 1523 4185 
L 2240 4185 
C 2771 4185 3750 3873 3750 2140 
C 3750 1242 3488 879 3366 707 
C 3213 510 2848 166 2240 166 
L 1523 166 
z
" id="CMR17-44" transform="scale(0.015625)"/>
       <path d="M 2234 2240 
C 2112 2240 1933 2240 1933 2015 
C 1933 1836 2080 1785 2163 1785 
C 2208 1785 2394 1804 2394 2028 
C 2394 2476 1958 2816 1466 2816 
C 787 2816 211 2201 211 1379 
C 211 521 813 -64 1466 -64 
C 2259 -64 2458 676 2458 747 
C 2458 773 2451 792 2406 792 
C 2362 792 2355 786 2330 702 
C 2163 180 1798 51 1523 51 
C 1114 51 621 431 621 1385 
C 621 2358 1094 2700 1472 2700 
C 1722 2700 2093 2582 2234 2240 
z
" id="CMR17-63" transform="scale(0.015625)"/>
       <path d="M 2323 4441 
C 2291 4524 2278 4544 2214 4544 
C 2150 4544 2138 4524 2106 4441 
L 749 580 
C 627 236 371 166 147 166 
L 147 0 
C 262 12 518 12 640 12 
C 800 12 1056 12 1210 0 
L 1210 166 
C 909 179 864 382 864 459 
C 864 516 877 548 890 586 
L 1229 1536 
L 2906 1536 
L 3290 453 
C 3322 376 3322 363 3322 338 
C 3322 166 3046 166 2925 166 
L 2925 0 
C 3110 12 3443 12 3642 12 
C 3808 12 4128 12 4282 0 
L 4282 166 
C 3942 166 3827 166 3744 402 
L 2323 4441 
z
M 2067 3924 
L 2848 1702 
L 1286 1702 
L 2067 3924 
z
" id="CMR17-41" transform="scale(0.015625)"/>
       <path d="M 2496 2183 
C 2656 2579 2944 2585 3034 2585 
L 3034 2752 
C 2912 2745 2752 2739 2630 2739 
C 2496 2739 2285 2739 2157 2752 
L 2157 2585 
C 2400 2566 2406 2384 2406 2332 
C 2406 2268 2394 2235 2362 2158 
L 1664 409 
L 902 2300 
C 870 2378 870 2423 870 2430 
C 870 2572 1018 2585 1171 2585 
L 1171 2752 
C 1018 2739 742 2739 582 2739 
C 410 2739 205 2739 64 2752 
L 64 2585 
C 410 2585 448 2553 531 2345 
L 1485 -31 
C 1197 -795 1030 -1242 627 -1242 
C 557 -1242 397 -1223 282 -1106 
C 429 -1093 493 -1002 493 -892 
C 493 -782 416 -685 288 -685 
C 147 -685 77 -782 77 -899 
C 77 -1158 339 -1344 627 -1344 
C 998 -1344 1229 -983 1357 -659 
L 2496 2183 
z
" id="CMR17-79" transform="scale(0.015625)"/>
      </defs>
      <use transform="scale(0.996264)" xlink:href="#CMR17-4d"/>
      <use transform="translate(84.686941 0)scale(0.996264)" xlink:href="#CMR17-65"/>
      <use transform="translate(125.172601 0)scale(0.996264)" xlink:href="#CMR17-61"/>
      <use transform="translate(170.863078 0)scale(0.996264)" xlink:href="#CMR17-6e"/>
      <use transform="translate(251.834414 0)scale(0.996264)" xlink:href="#CMR17-44"/>
      <use transform="translate(322.22797 0)scale(0.996264)" xlink:href="#CMR17-65"/>
      <use transform="translate(362.713631 0)scale(0.996264)" xlink:href="#CMR17-63"/>
      <use transform="translate(403.199291 0)scale(0.996264)" xlink:href="#CMR17-72"/>
      <use transform="translate(438.480059 0)scale(0.996264)" xlink:href="#CMR17-65"/>
      <use transform="translate(478.965719 0)scale(0.996264)" xlink:href="#CMR17-61"/>
      <use transform="translate(524.656196 0)scale(0.996264)" xlink:href="#CMR17-73"/>
      <use transform="translate(560.457534 0)scale(0.996264)" xlink:href="#CMR17-65"/>
      <use transform="translate(631.019161 0)scale(0.996264)" xlink:href="#CMR17-41"/>
      <use transform="translate(700.091591 0)scale(0.996264)" xlink:href="#CMR17-63"/>
      <use transform="translate(740.577251 0)scale(0.996264)" xlink:href="#CMR17-63"/>
      <use transform="translate(781.062912 0)scale(0.996264)" xlink:href="#CMR17-75"/>
      <use transform="translate(831.958281 0)scale(0.996264)" xlink:href="#CMR17-72"/>
      <use transform="translate(867.239049 0)scale(0.996264)" xlink:href="#CMR17-61"/>
      <use transform="translate(912.929526 0)scale(0.996264)" xlink:href="#CMR17-63"/>
      <use transform="translate(953.415187 0)scale(0.996264)" xlink:href="#CMR17-79"/>
     </g>
    </g>
   </g>
   <g id="line2d_55">
    <path clip-path="url(#p6dc2f69771)" style="fill:none;stroke:#424242;stroke-linecap:square;stroke-width:1.8;"/>
   </g>
   <g id="line2d_56">
    <path clip-path="url(#p6dc2f69771)" style="fill:none;stroke:#424242;stroke-linecap:square;stroke-width:1.8;"/>
   </g>
   <g id="line2d_57">
    <path clip-path="url(#p6dc2f69771)" style="fill:none;stroke:#424242;stroke-linecap:square;stroke-width:1.8;"/>
   </g>
   <g id="line2d_58">
    <path clip-path="url(#p6dc2f69771)" style="fill:none;stroke:#424242;stroke-linecap:square;stroke-width:1.8;"/>
   </g>
   <g id="line2d_59">
    <path clip-path="url(#p6dc2f69771)" style="fill:none;stroke:#424242;stroke-linecap:square;stroke-width:1.8;"/>
   </g>
   <g id="line2d_60">
    <path clip-path="url(#p6dc2f69771)" style="fill:none;stroke:#424242;stroke-linecap:square;stroke-width:1.8;"/>
   </g>
   <g id="line2d_61">
    <path clip-path="url(#p6dc2f69771)" style="fill:none;stroke:#424242;stroke-linecap:square;stroke-width:1.8;"/>
   </g>
   <g id="line2d_62">
    <path clip-path="url(#p6dc2f69771)" style="fill:none;stroke:#424242;stroke-linecap:square;stroke-width:1.8;"/>
   </g>
   <g id="patch_11">
    <path d="M 43.983371 329.76 
L 43.983371 3.6 
" style="fill:none;stroke:#000000;stroke-linecap:square;stroke-linejoin:miter;stroke-width:0.5;"/>
   </g>
   <g id="patch_12">
    <path d="M 399.07428 329.76 
L 399.07428 3.6 
" style="fill:none;stroke:#000000;stroke-linecap:square;stroke-linejoin:miter;stroke-width:0.5;"/>
   </g>
   <g id="patch_13">
    <path d="M 43.983371 329.76 
L 399.07428 329.76 
" style="fill:none;stroke:#000000;stroke-linecap:square;stroke-linejoin:miter;stroke-width:0.5;"/>
   </g>
   <g id="patch_14">
    <path d="M 43.983371 3.6 
L 399.07428 3.6 
" style="fill:none;stroke:#000000;stroke-linecap:square;stroke-linejoin:miter;stroke-width:0.5;"/>
   </g>
   <g id="text_9">
    <!-- SOC -->
    <g transform="translate(52.140215 124.365462)scale(0.14 -0.14)">
     <defs>
      <path d="M 2803 4351 
C 2803 4467 2797 4473 2758 4473 
C 2720 4473 2707 4447 2682 4390 
L 2490 3965 
C 2246 4320 1875 4480 1472 4480 
C 819 4480 294 3958 294 3301 
C 294 3101 339 2817 557 2546 
C 794 2250 1018 2198 1530 2063 
C 1722 2011 2042 1927 2106 1901 
C 2470 1747 2662 1360 2662 999 
C 2662 534 2336 38 1779 38 
C 1094 38 454 425 410 1328 
C 403 1431 397 1437 352 1437 
C 301 1437 294 1431 294 1302 
L 294 0 
C 294 -116 301 -122 339 -122 
C 384 -122 397 -90 486 109 
C 493 128 493 141 614 386 
C 934 -39 1472 -128 1779 -128 
C 2477 -128 2970 457 2970 1141 
C 2970 1476 2848 1734 2778 1850 
C 2509 2263 2221 2340 1914 2417 
C 1869 2437 1856 2437 1498 2527 
C 1152 2617 1005 2662 845 2836 
C 666 3036 602 3243 602 3449 
C 602 3868 934 4326 1478 4326 
C 2157 4326 2579 3842 2675 3036 
C 2694 2920 2701 2914 2746 2914 
C 2803 2914 2803 2933 2803 3043 
L 2803 4351 
z
" id="CMR17-53" transform="scale(0.015625)"/>
      <path d="M 4307 2166 
C 4307 3488 3366 4480 2304 4480 
C 1216 4480 294 3475 294 2166 
C 294 857 1229 -128 2298 -128 
C 3392 -128 4307 876 4307 2166 
z
M 2304 -13 
C 1574 -13 781 722 781 2250 
C 781 3771 1651 4364 2298 4364 
C 2976 4364 3821 3752 3821 2250 
C 3821 696 3008 -13 2304 -13 
z
" id="CMR17-4f" transform="scale(0.015625)"/>
      <path d="M 3974 4351 
C 3974 4467 3968 4473 3930 4473 
C 3904 4473 3898 4467 3853 4390 
L 3571 3849 
C 3258 4249 2874 4480 2381 4480 
C 1286 4480 294 3507 294 2179 
C 294 837 1286 -128 2387 -128 
C 3366 -128 3974 741 3974 1482 
C 3974 1547 3974 1573 3917 1573 
C 3866 1573 3866 1553 3859 1495 
C 3808 592 3168 38 2477 38 
C 1824 38 781 502 781 2179 
C 781 3862 1843 4313 2464 4313 
C 3187 4313 3712 3681 3834 2785 
C 3846 2707 3846 2695 3904 2695 
C 3974 2695 3974 2707 3974 2824 
L 3974 4351 
z
" id="CMR17-43" transform="scale(0.015625)"/>
     </defs>
     <use transform="scale(0.996264)" xlink:href="#CMR17-53"/>
     <use transform="translate(50.89537 0)scale(0.996264)" xlink:href="#CMR17-4f"/>
     <use transform="translate(122.610158 0)scale(0.996264)" xlink:href="#CMR17-43"/>
    </g>
   </g>
   <g id="text_10">
    <!-- CEC -->
    <g transform="translate(96.053583 118.437272)scale(0.14 -0.14)">
     <defs>
      <path d="M 3885 1614 
L 3770 1614 
C 3629 676 3546 166 2419 166 
L 1530 166 
C 1274 166 1261 198 1261 415 
L 1261 2176 
L 1862 2176 
C 2464 2176 2522 1959 2522 1429 
L 2637 1429 
L 2637 3086 
L 2522 3086 
C 2522 2558 2464 2342 1862 2342 
L 1261 2342 
L 1261 3924 
C 1261 4141 1274 4172 1530 4172 
L 2406 4172 
C 3398 4172 3514 3778 3603 2933 
L 3718 2933 
L 3565 4339 
L 326 4339 
L 326 4172 
C 768 4172 838 4172 838 3886 
L 838 453 
C 838 166 768 166 326 166 
L 326 0 
L 3654 0 
L 3885 1614 
z
" id="CMR17-45" transform="scale(0.015625)"/>
     </defs>
     <use transform="scale(0.996264)" xlink:href="#CMR17-43"/>
     <use transform="translate(66.509881 0)scale(0.996264)" xlink:href="#CMR17-45"/>
     <use transform="translate(129.096181 0)scale(0.996264)" xlink:href="#CMR17-43"/>
    </g>
   </g>
   <g id="text_11">
    <!-- BIO1 -->
    <g transform="translate(138.924921 141.407836)scale(0.14 -0.14)">
     <defs>
      <path d="M 333 4352 
L 333 4185 
C 774 4185 845 4185 845 3897 
L 845 451 
C 845 166 774 166 333 166 
L 333 0 
L 2534 0 
C 3354 0 3885 578 3885 1155 
C 3885 1726 3360 2214 2675 2259 
C 3290 2380 3718 2790 3718 3276 
C 3718 3808 3194 4352 2368 4352 
L 333 4352 
z
M 1248 2304 
L 1248 3936 
C 1248 4153 1261 4185 1517 4185 
L 2336 4185 
C 2970 4185 3251 3673 3251 3276 
C 3251 2790 2861 2304 2170 2304 
L 1248 2304 
z
M 1517 166 
C 1261 166 1248 198 1248 413 
L 1248 2201 
L 2432 2201 
C 3091 2201 3411 1624 3411 1161 
C 3411 698 3046 166 2349 166 
L 1517 166 
z
" id="CMR17-42" transform="scale(0.015625)"/>
      <path d="M 1261 3898 
C 1261 4185 1338 4185 1798 4185 
L 1798 4352 
C 1594 4339 1267 4339 1050 4339 
C 832 4339 506 4339 301 4352 
L 301 4185 
C 762 4185 838 4185 838 3898 
L 838 453 
C 838 166 762 166 301 166 
L 301 0 
C 506 12 832 12 1050 12 
C 1267 12 1594 12 1798 0 
L 1798 166 
C 1338 166 1261 166 1261 453 
L 1261 3898 
z
" id="CMR17-49" transform="scale(0.015625)"/>
     </defs>
     <use transform="scale(0.996264)" xlink:href="#CMR17-42"/>
     <use transform="translate(65.188754 0)scale(0.996264)" xlink:href="#CMR17-49"/>
     <use transform="translate(97.827164 0)scale(0.996264)" xlink:href="#CMR17-4f"/>
     <use transform="translate(169.541952 0)scale(0.996264)" xlink:href="#CMR17-31"/>
    </g>
   </g>
   <g id="text_12">
    <!-- BIO8 -->
    <g transform="translate(183.311285 136.859167)scale(0.14 -0.14)">
     <use transform="scale(0.996264)" xlink:href="#CMR17-42"/>
     <use transform="translate(65.188754 0)scale(0.996264)" xlink:href="#CMR17-49"/>
     <use transform="translate(97.827164 0)scale(0.996264)" xlink:href="#CMR17-4f"/>
     <use transform="translate(169.541952 0)scale(0.996264)" xlink:href="#CMR17-38"/>
    </g>
   </g>
   <g id="text_13">
    <!-- BIO10 -->
    <g transform="translate(224.283404 153.879459)scale(0.14 -0.14)">
     <use transform="scale(0.996264)" xlink:href="#CMR17-42"/>
     <use transform="translate(65.188754 0)scale(0.996264)" xlink:href="#CMR17-49"/>
     <use transform="translate(97.827164 0)scale(0.996264)" xlink:href="#CMR17-4f"/>
     <use transform="translate(169.541952 0)scale(0.996264)" xlink:href="#CMR17-31"/>
     <use transform="translate(215.232429 0)scale(0.996264)" xlink:href="#CMR17-30"/>
    </g>
   </g>
   <g id="text_14">
    <!-- BIO13 -->
    <g transform="translate(268.669768 53.223048)scale(0.14 -0.14)">
     <defs>
      <path d="M 1414 2176 
C 1984 2176 2234 1673 2234 1094 
C 2234 322 1824 25 1453 25 
C 1114 25 563 193 390 691 
C 422 678 454 678 486 678 
C 640 678 755 780 755 947 
C 755 1132 614 1216 486 1216 
C 378 1216 211 1164 211 927 
C 211 335 787 -128 1466 -128 
C 2176 -128 2720 432 2720 1087 
C 2720 1718 2208 2176 1600 2246 
C 2086 2347 2554 2776 2554 3353 
C 2554 3856 2048 4224 1472 4224 
C 890 4224 378 3862 378 3347 
C 378 3123 544 3084 627 3084 
C 762 3084 877 3167 877 3334 
C 877 3500 762 3584 627 3584 
C 602 3584 570 3584 544 3571 
C 730 3999 1235 4076 1459 4076 
C 1683 4076 2106 3966 2106 3347 
C 2106 3167 2080 2851 1862 2574 
C 1670 2329 1453 2316 1242 2297 
C 1210 2297 1062 2284 1037 2284 
C 992 2278 966 2272 966 2227 
C 966 2182 973 2176 1101 2176 
L 1414 2176 
z
" id="CMR17-33" transform="scale(0.015625)"/>
     </defs>
     <use transform="scale(0.996264)" xlink:href="#CMR17-42"/>
     <use transform="translate(65.188754 0)scale(0.996264)" xlink:href="#CMR17-49"/>
     <use transform="translate(97.827164 0)scale(0.996264)" xlink:href="#CMR17-4f"/>
     <use transform="translate(169.541952 0)scale(0.996264)" xlink:href="#CMR17-31"/>
     <use transform="translate(215.232429 0)scale(0.996264)" xlink:href="#CMR17-33"/>
    </g>
   </g>
   <g id="text_15">
    <!-- BIO15 -->
    <g transform="translate(313.056132 95.975537)scale(0.14 -0.14)">
     <defs>
      <path d="M 730 3750 
C 794 3724 1056 3641 1325 3641 
C 1920 3641 2246 3961 2432 4140 
C 2432 4191 2432 4224 2394 4224 
C 2387 4224 2374 4224 2323 4198 
C 2099 4102 1837 4032 1517 4032 
C 1325 4032 1037 4055 723 4191 
C 653 4224 640 4224 634 4224 
C 602 4224 595 4217 595 4090 
L 595 2231 
C 595 2113 595 2080 659 2080 
C 691 2080 704 2093 736 2139 
C 941 2435 1222 2560 1542 2560 
C 1766 2560 2246 2415 2246 1293 
C 2246 1087 2246 716 2054 422 
C 1894 159 1645 25 1370 25 
C 947 25 518 319 403 812 
C 429 806 480 793 506 793 
C 589 793 749 838 749 1036 
C 749 1209 627 1280 506 1280 
C 358 1280 262 1190 262 1011 
C 262 454 704 -128 1382 -128 
C 2042 -128 2669 441 2669 1267 
C 2669 2054 2170 2662 1549 2662 
C 1222 2662 947 2540 730 2304 
L 730 3750 
z
" id="CMR17-35" transform="scale(0.015625)"/>
     </defs>
     <use transform="scale(0.996264)" xlink:href="#CMR17-42"/>
     <use transform="translate(65.188754 0)scale(0.996264)" xlink:href="#CMR17-49"/>
     <use transform="translate(97.827164 0)scale(0.996264)" xlink:href="#CMR17-4f"/>
     <use transform="translate(169.541952 0)scale(0.996264)" xlink:href="#CMR17-31"/>
     <use transform="translate(215.232429 0)scale(0.996264)" xlink:href="#CMR17-35"/>
    </g>
   </g>
   <g id="text_16">
    <!-- BIO19 -->
    <g transform="translate(357.442495 125.631318)scale(0.14 -0.14)">
     <defs>
      <path d="M 2253 1871 
C 2253 448 1670 25 1190 25 
C 1043 25 685 43 538 281 
C 704 256 826 345 826 505 
C 826 678 685 736 595 736 
C 538 736 365 710 365 492 
C 365 68 742 -128 1203 -128 
C 1939 -128 2688 665 2688 2090 
C 2688 3857 1971 4224 1485 4224 
C 851 4224 243 3664 243 2800 
C 243 2000 762 1408 1414 1408 
C 1952 1408 2189 1910 2253 2122 
L 2253 1871 
z
M 1427 1510 
C 1254 1510 1011 1542 813 1929 
C 678 2181 678 2477 678 2793 
C 678 3174 678 3438 858 3722 
C 947 3857 1114 4076 1485 4076 
C 2240 4076 2240 2909 2240 2651 
C 2240 2193 2035 1510 1427 1510 
z
" id="CMR17-39" transform="scale(0.015625)"/>
     </defs>
     <use transform="scale(0.996264)" xlink:href="#CMR17-42"/>
     <use transform="translate(65.188754 0)scale(0.996264)" xlink:href="#CMR17-49"/>
     <use transform="translate(97.827164 0)scale(0.996264)" xlink:href="#CMR17-4f"/>
     <use transform="translate(169.541952 0)scale(0.996264)" xlink:href="#CMR17-31"/>
     <use transform="translate(215.232429 0)scale(0.996264)" xlink:href="#CMR17-39"/>
    </g>
   </g>
  </g>
  <g id="axes_2">
   <g id="patch_15">
    <path d="M 470.092462 329.76 
L 825.183371 329.76 
L 825.183371 3.6 
L 470.092462 3.6 
z
" style="fill:#ffffff;"/>
   </g>
   <g id="patch_16">
    <path clip-path="url(#p14b551d0b5)" d="M 474.531098 329.76 
L 510.040189 329.76 
L 510.040189 150.937981 
L 474.531098 150.937981 
z
" style="fill:#416986;"/>
   </g>
   <g id="patch_17">
    <path clip-path="url(#p14b551d0b5)" d="M 518.917462 329.76 
L 554.426553 329.76 
L 554.426553 176.808804 
L 518.917462 176.808804 
z
" style="fill:#38454e;"/>
   </g>
   <g id="patch_18">
    <path clip-path="url(#p14b551d0b5)" d="M 563.303825 329.76 
L 598.812916 329.76 
L 598.812916 73.588872 
L 563.303825 73.588872 
z
" style="fill:#84aeca;"/>
   </g>
   <g id="patch_19">
    <path clip-path="url(#p14b551d0b5)" d="M 607.690189 329.76 
L 643.19928 329.76 
L 643.19928 26.550896 
L 607.690189 26.550896 
z
" style="fill:#9bbed4;"/>
   </g>
   <g id="patch_20">
    <path clip-path="url(#p14b551d0b5)" d="M 652.076553 329.76 
L 687.585643 329.76 
L 687.585643 81.915801 
L 652.076553 81.915801 
z
" style="fill:#548db5;"/>
   </g>
   <g id="patch_21">
    <path clip-path="url(#p14b551d0b5)" d="M 696.462916 329.76 
L 731.972007 329.76 
L 731.972007 76.506848 
L 696.462916 76.506848 
z
" style="fill:#6c9dbf;"/>
   </g>
   <g id="patch_22">
    <path clip-path="url(#p14b551d0b5)" d="M 740.84928 329.76 
L 776.358371 329.76 
L 776.358371 143.285234 
L 740.84928 143.285234 
z
" style="fill:#467ba1;"/>
   </g>
   <g id="patch_23">
    <path clip-path="url(#p14b551d0b5)" d="M 785.235643 329.76 
L 820.744734 329.76 
L 820.744734 151.27031 
L 785.235643 151.27031 
z
" style="fill:#3c576a;"/>
   </g>
   <g id="matplotlib.axis_3">
    <g id="text_17">
     <!-- Features -->
     <g transform="translate(622.468553 343.445876)scale(0.14 -0.14)">
      <use transform="scale(0.996264)" xlink:href="#CMR17-46"/>
      <use transform="translate(52.176591 0)scale(0.996264)" xlink:href="#CMR17-65"/>
      <use transform="translate(92.662252 0)scale(0.996264)" xlink:href="#CMR17-61"/>
      <use transform="translate(138.352729 0)scale(0.996264)" xlink:href="#CMR17-74"/>
      <use transform="translate(173.633497 0)scale(0.996264)" xlink:href="#CMR17-75"/>
      <use transform="translate(224.528866 0)scale(0.996264)" xlink:href="#CMR17-72"/>
      <use transform="translate(259.809634 0)scale(0.996264)" xlink:href="#CMR17-65"/>
      <use transform="translate(300.295295 0)scale(0.996264)" xlink:href="#CMR17-73"/>
     </g>
    </g>
   </g>
   <g id="matplotlib.axis_4">
    <g id="ytick_25">
     <g id="line2d_63">
      <path clip-path="url(#p14b551d0b5)" d="M 470.092462 329.76 
L 825.183371 329.76 
" style="fill:none;stroke:#000000;stroke-dasharray:0.5,0.825;stroke-dashoffset:0;stroke-opacity:0.5;stroke-width:0.5;"/>
     </g>
     <g id="line2d_64">
      <g>
       <use style="stroke:#000000;stroke-width:0.5;" x="470.092462" xlink:href="#m7ffb2b6520" y="329.76"/>
      </g>
     </g>
     <g id="line2d_65">
      <g>
       <use style="stroke:#000000;stroke-width:0.5;" x="825.183371" xlink:href="#m0151e8d51c" y="329.76"/>
      </g>
     </g>
     <g id="text_18">
      <!-- $\mathdefault{0}$ -->
      <g transform="translate(459.763973 334.602938)scale(0.14 -0.14)">
       <use transform="scale(0.996264)" xlink:href="#CMR17-30"/>
      </g>
     </g>
    </g>
    <g id="ytick_26">
     <g id="line2d_66">
      <path clip-path="url(#p14b551d0b5)" d="M 470.092462 272.38276 
L 825.183371 272.38276 
" style="fill:none;stroke:#000000;stroke-dasharray:0.5,0.825;stroke-dashoffset:0;stroke-opacity:0.5;stroke-width:0.5;"/>
     </g>
     <g id="line2d_67">
      <g>
       <use style="stroke:#000000;stroke-width:0.5;" x="470.092462" xlink:href="#m7ffb2b6520" y="272.38276"/>
      </g>
     </g>
     <g id="line2d_68">
      <g>
       <use style="stroke:#000000;stroke-width:0.5;" x="825.183371" xlink:href="#m0151e8d51c" y="272.38276"/>
      </g>
     </g>
     <g id="text_19">
      <!-- $\mathdefault{50}$ -->
      <g transform="translate(452.935484 277.225699)scale(0.14 -0.14)">
       <use transform="scale(0.996264)" xlink:href="#CMR17-35"/>
       <use transform="translate(45.690477 0)scale(0.996264)" xlink:href="#CMR17-30"/>
      </g>
     </g>
    </g>
    <g id="ytick_27">
     <g id="line2d_69">
      <path clip-path="url(#p14b551d0b5)" d="M 470.092462 215.005521 
L 825.183371 215.005521 
" style="fill:none;stroke:#000000;stroke-dasharray:0.5,0.825;stroke-dashoffset:0;stroke-opacity:0.5;stroke-width:0.5;"/>
     </g>
     <g id="line2d_70">
      <g>
       <use style="stroke:#000000;stroke-width:0.5;" x="470.092462" xlink:href="#m7ffb2b6520" y="215.005521"/>
      </g>
     </g>
     <g id="line2d_71">
      <g>
       <use style="stroke:#000000;stroke-width:0.5;" x="825.183371" xlink:href="#m0151e8d51c" y="215.005521"/>
      </g>
     </g>
     <g id="text_20">
      <!-- $\mathdefault{100}$ -->
      <g transform="translate(446.106996 219.848459)scale(0.14 -0.14)">
       <use transform="scale(0.996264)" xlink:href="#CMR17-31"/>
       <use transform="translate(45.690477 0)scale(0.996264)" xlink:href="#CMR17-30"/>
       <use transform="translate(91.380954 0)scale(0.996264)" xlink:href="#CMR17-30"/>
      </g>
     </g>
    </g>
    <g id="ytick_28">
     <g id="line2d_72">
      <path clip-path="url(#p14b551d0b5)" d="M 470.092462 157.628281 
L 825.183371 157.628281 
" style="fill:none;stroke:#000000;stroke-dasharray:0.5,0.825;stroke-dashoffset:0;stroke-opacity:0.5;stroke-width:0.5;"/>
     </g>
     <g id="line2d_73">
      <g>
       <use style="stroke:#000000;stroke-width:0.5;" x="470.092462" xlink:href="#m7ffb2b6520" y="157.628281"/>
      </g>
     </g>
     <g id="line2d_74">
      <g>
       <use style="stroke:#000000;stroke-width:0.5;" x="825.183371" xlink:href="#m0151e8d51c" y="157.628281"/>
      </g>
     </g>
     <g id="text_21">
      <!-- $\mathdefault{150}$ -->
      <g transform="translate(446.106996 162.47122)scale(0.14 -0.14)">
       <use transform="scale(0.996264)" xlink:href="#CMR17-31"/>
       <use transform="translate(45.690477 0)scale(0.996264)" xlink:href="#CMR17-35"/>
       <use transform="translate(91.380954 0)scale(0.996264)" xlink:href="#CMR17-30"/>
      </g>
     </g>
    </g>
    <g id="ytick_29">
     <g id="line2d_75">
      <path clip-path="url(#p14b551d0b5)" d="M 470.092462 100.251042 
L 825.183371 100.251042 
" style="fill:none;stroke:#000000;stroke-dasharray:0.5,0.825;stroke-dashoffset:0;stroke-opacity:0.5;stroke-width:0.5;"/>
     </g>
     <g id="line2d_76">
      <g>
       <use style="stroke:#000000;stroke-width:0.5;" x="470.092462" xlink:href="#m7ffb2b6520" y="100.251042"/>
      </g>
     </g>
     <g id="line2d_77">
      <g>
       <use style="stroke:#000000;stroke-width:0.5;" x="825.183371" xlink:href="#m0151e8d51c" y="100.251042"/>
      </g>
     </g>
     <g id="text_22">
      <!-- $\mathdefault{200}$ -->
      <g transform="translate(446.106996 105.09398)scale(0.14 -0.14)">
       <use transform="scale(0.996264)" xlink:href="#CMR17-32"/>
       <use transform="translate(45.690477 0)scale(0.996264)" xlink:href="#CMR17-30"/>
       <use transform="translate(91.380954 0)scale(0.996264)" xlink:href="#CMR17-30"/>
      </g>
     </g>
    </g>
    <g id="ytick_30">
     <g id="line2d_78">
      <path clip-path="url(#p14b551d0b5)" d="M 470.092462 42.873802 
L 825.183371 42.873802 
" style="fill:none;stroke:#000000;stroke-dasharray:0.5,0.825;stroke-dashoffset:0;stroke-opacity:0.5;stroke-width:0.5;"/>
     </g>
     <g id="line2d_79">
      <g>
       <use style="stroke:#000000;stroke-width:0.5;" x="470.092462" xlink:href="#m7ffb2b6520" y="42.873802"/>
      </g>
     </g>
     <g id="line2d_80">
      <g>
       <use style="stroke:#000000;stroke-width:0.5;" x="825.183371" xlink:href="#m0151e8d51c" y="42.873802"/>
      </g>
     </g>
     <g id="text_23">
      <!-- $\mathdefault{250}$ -->
      <g transform="translate(446.106996 47.716741)scale(0.14 -0.14)">
       <use transform="scale(0.996264)" xlink:href="#CMR17-32"/>
       <use transform="translate(45.690477 0)scale(0.996264)" xlink:href="#CMR17-35"/>
       <use transform="translate(91.380954 0)scale(0.996264)" xlink:href="#CMR17-30"/>
      </g>
     </g>
    </g>
    <g id="ytick_31">
     <g id="line2d_81">
      <g>
       <use style="stroke:#000000;stroke-width:0.5;" x="470.092462" xlink:href="#m695846ed5a" y="318.284552"/>
      </g>
     </g>
     <g id="line2d_82">
      <g>
       <use style="stroke:#000000;stroke-width:0.5;" x="825.183371" xlink:href="#m49f4a158b1" y="318.284552"/>
      </g>
     </g>
    </g>
    <g id="ytick_32">
     <g id="line2d_83">
      <g>
       <use style="stroke:#000000;stroke-width:0.5;" x="470.092462" xlink:href="#m695846ed5a" y="306.809104"/>
      </g>
     </g>
     <g id="line2d_84">
      <g>
       <use style="stroke:#000000;stroke-width:0.5;" x="825.183371" xlink:href="#m49f4a158b1" y="306.809104"/>
      </g>
     </g>
    </g>
    <g id="ytick_33">
     <g id="line2d_85">
      <g>
       <use style="stroke:#000000;stroke-width:0.5;" x="470.092462" xlink:href="#m695846ed5a" y="295.333656"/>
      </g>
     </g>
     <g id="line2d_86">
      <g>
       <use style="stroke:#000000;stroke-width:0.5;" x="825.183371" xlink:href="#m49f4a158b1" y="295.333656"/>
      </g>
     </g>
    </g>
    <g id="ytick_34">
     <g id="line2d_87">
      <g>
       <use style="stroke:#000000;stroke-width:0.5;" x="470.092462" xlink:href="#m695846ed5a" y="283.858208"/>
      </g>
     </g>
     <g id="line2d_88">
      <g>
       <use style="stroke:#000000;stroke-width:0.5;" x="825.183371" xlink:href="#m49f4a158b1" y="283.858208"/>
      </g>
     </g>
    </g>
    <g id="ytick_35">
     <g id="line2d_89">
      <g>
       <use style="stroke:#000000;stroke-width:0.5;" x="470.092462" xlink:href="#m695846ed5a" y="260.907313"/>
      </g>
     </g>
     <g id="line2d_90">
      <g>
       <use style="stroke:#000000;stroke-width:0.5;" x="825.183371" xlink:href="#m49f4a158b1" y="260.907313"/>
      </g>
     </g>
    </g>
    <g id="ytick_36">
     <g id="line2d_91">
      <g>
       <use style="stroke:#000000;stroke-width:0.5;" x="470.092462" xlink:href="#m695846ed5a" y="249.431865"/>
      </g>
     </g>
     <g id="line2d_92">
      <g>
       <use style="stroke:#000000;stroke-width:0.5;" x="825.183371" xlink:href="#m49f4a158b1" y="249.431865"/>
      </g>
     </g>
    </g>
    <g id="ytick_37">
     <g id="line2d_93">
      <g>
       <use style="stroke:#000000;stroke-width:0.5;" x="470.092462" xlink:href="#m695846ed5a" y="237.956417"/>
      </g>
     </g>
     <g id="line2d_94">
      <g>
       <use style="stroke:#000000;stroke-width:0.5;" x="825.183371" xlink:href="#m49f4a158b1" y="237.956417"/>
      </g>
     </g>
    </g>
    <g id="ytick_38">
     <g id="line2d_95">
      <g>
       <use style="stroke:#000000;stroke-width:0.5;" x="470.092462" xlink:href="#m695846ed5a" y="226.480969"/>
      </g>
     </g>
     <g id="line2d_96">
      <g>
       <use style="stroke:#000000;stroke-width:0.5;" x="825.183371" xlink:href="#m49f4a158b1" y="226.480969"/>
      </g>
     </g>
    </g>
    <g id="ytick_39">
     <g id="line2d_97">
      <g>
       <use style="stroke:#000000;stroke-width:0.5;" x="470.092462" xlink:href="#m695846ed5a" y="203.530073"/>
      </g>
     </g>
     <g id="line2d_98">
      <g>
       <use style="stroke:#000000;stroke-width:0.5;" x="825.183371" xlink:href="#m49f4a158b1" y="203.530073"/>
      </g>
     </g>
    </g>
    <g id="ytick_40">
     <g id="line2d_99">
      <g>
       <use style="stroke:#000000;stroke-width:0.5;" x="470.092462" xlink:href="#m695846ed5a" y="192.054625"/>
      </g>
     </g>
     <g id="line2d_100">
      <g>
       <use style="stroke:#000000;stroke-width:0.5;" x="825.183371" xlink:href="#m49f4a158b1" y="192.054625"/>
      </g>
     </g>
    </g>
    <g id="ytick_41">
     <g id="line2d_101">
      <g>
       <use style="stroke:#000000;stroke-width:0.5;" x="470.092462" xlink:href="#m695846ed5a" y="180.579177"/>
      </g>
     </g>
     <g id="line2d_102">
      <g>
       <use style="stroke:#000000;stroke-width:0.5;" x="825.183371" xlink:href="#m49f4a158b1" y="180.579177"/>
      </g>
     </g>
    </g>
    <g id="ytick_42">
     <g id="line2d_103">
      <g>
       <use style="stroke:#000000;stroke-width:0.5;" x="470.092462" xlink:href="#m695846ed5a" y="169.103729"/>
      </g>
     </g>
     <g id="line2d_104">
      <g>
       <use style="stroke:#000000;stroke-width:0.5;" x="825.183371" xlink:href="#m49f4a158b1" y="169.103729"/>
      </g>
     </g>
    </g>
    <g id="ytick_43">
     <g id="line2d_105">
      <g>
       <use style="stroke:#000000;stroke-width:0.5;" x="470.092462" xlink:href="#m695846ed5a" y="146.152834"/>
      </g>
     </g>
     <g id="line2d_106">
      <g>
       <use style="stroke:#000000;stroke-width:0.5;" x="825.183371" xlink:href="#m49f4a158b1" y="146.152834"/>
      </g>
     </g>
    </g>
    <g id="ytick_44">
     <g id="line2d_107">
      <g>
       <use style="stroke:#000000;stroke-width:0.5;" x="470.092462" xlink:href="#m695846ed5a" y="134.677386"/>
      </g>
     </g>
     <g id="line2d_108">
      <g>
       <use style="stroke:#000000;stroke-width:0.5;" x="825.183371" xlink:href="#m49f4a158b1" y="134.677386"/>
      </g>
     </g>
    </g>
    <g id="ytick_45">
     <g id="line2d_109">
      <g>
       <use style="stroke:#000000;stroke-width:0.5;" x="470.092462" xlink:href="#m695846ed5a" y="123.201938"/>
      </g>
     </g>
     <g id="line2d_110">
      <g>
       <use style="stroke:#000000;stroke-width:0.5;" x="825.183371" xlink:href="#m49f4a158b1" y="123.201938"/>
      </g>
     </g>
    </g>
    <g id="ytick_46">
     <g id="line2d_111">
      <g>
       <use style="stroke:#000000;stroke-width:0.5;" x="470.092462" xlink:href="#m695846ed5a" y="111.72649"/>
      </g>
     </g>
     <g id="line2d_112">
      <g>
       <use style="stroke:#000000;stroke-width:0.5;" x="825.183371" xlink:href="#m49f4a158b1" y="111.72649"/>
      </g>
     </g>
    </g>
    <g id="ytick_47">
     <g id="line2d_113">
      <g>
       <use style="stroke:#000000;stroke-width:0.5;" x="470.092462" xlink:href="#m695846ed5a" y="88.775594"/>
      </g>
     </g>
     <g id="line2d_114">
      <g>
       <use style="stroke:#000000;stroke-width:0.5;" x="825.183371" xlink:href="#m49f4a158b1" y="88.775594"/>
      </g>
     </g>
    </g>
    <g id="ytick_48">
     <g id="line2d_115">
      <g>
       <use style="stroke:#000000;stroke-width:0.5;" x="470.092462" xlink:href="#m695846ed5a" y="77.300146"/>
      </g>
     </g>
     <g id="line2d_116">
      <g>
       <use style="stroke:#000000;stroke-width:0.5;" x="825.183371" xlink:href="#m49f4a158b1" y="77.300146"/>
      </g>
     </g>
    </g>
    <g id="ytick_49">
     <g id="line2d_117">
      <g>
       <use style="stroke:#000000;stroke-width:0.5;" x="470.092462" xlink:href="#m695846ed5a" y="65.824698"/>
      </g>
     </g>
     <g id="line2d_118">
      <g>
       <use style="stroke:#000000;stroke-width:0.5;" x="825.183371" xlink:href="#m49f4a158b1" y="65.824698"/>
      </g>
     </g>
    </g>
    <g id="ytick_50">
     <g id="line2d_119">
      <g>
       <use style="stroke:#000000;stroke-width:0.5;" x="470.092462" xlink:href="#m695846ed5a" y="54.34925"/>
      </g>
     </g>
     <g id="line2d_120">
      <g>
       <use style="stroke:#000000;stroke-width:0.5;" x="825.183371" xlink:href="#m49f4a158b1" y="54.34925"/>
      </g>
     </g>
    </g>
    <g id="ytick_51">
     <g id="line2d_121">
      <g>
       <use style="stroke:#000000;stroke-width:0.5;" x="470.092462" xlink:href="#m695846ed5a" y="31.398355"/>
      </g>
     </g>
     <g id="line2d_122">
      <g>
       <use style="stroke:#000000;stroke-width:0.5;" x="825.183371" xlink:href="#m49f4a158b1" y="31.398355"/>
      </g>
     </g>
    </g>
    <g id="ytick_52">
     <g id="line2d_123">
      <g>
       <use style="stroke:#000000;stroke-width:0.5;" x="470.092462" xlink:href="#m695846ed5a" y="19.922907"/>
      </g>
     </g>
     <g id="line2d_124">
      <g>
       <use style="stroke:#000000;stroke-width:0.5;" x="825.183371" xlink:href="#m49f4a158b1" y="19.922907"/>
      </g>
     </g>
    </g>
    <g id="ytick_53">
     <g id="line2d_125">
      <g>
       <use style="stroke:#000000;stroke-width:0.5;" x="470.092462" xlink:href="#m695846ed5a" y="8.447459"/>
      </g>
     </g>
     <g id="line2d_126">
      <g>
       <use style="stroke:#000000;stroke-width:0.5;" x="825.183371" xlink:href="#m49f4a158b1" y="8.447459"/>
      </g>
     </g>
    </g>
    <g id="text_24">
     <!-- Mean Decrease Gini -->
     <g transform="translate(439.394967 226.794932)rotate(-90)scale(0.14 -0.14)">
      <defs>
       <path d="M 3974 1258 
C 3974 1503 3994 1536 4390 1536 
L 4390 1702 
C 4237 1689 3891 1689 3718 1689 
C 3539 1689 3040 1696 2797 1702 
L 2797 1536 
L 2989 1536 
C 3539 1536 3552 1464 3552 1232 
L 3552 806 
C 3552 96 2720 38 2522 38 
C 1862 38 781 496 781 2179 
C 781 3862 1843 4313 2464 4313 
C 3187 4313 3712 3681 3834 2785 
C 3846 2708 3846 2695 3904 2695 
C 3974 2695 3974 2708 3974 2824 
L 3974 4351 
C 3974 4467 3968 4473 3930 4473 
C 3904 4473 3898 4467 3853 4390 
L 3571 3849 
C 3258 4249 2874 4480 2381 4480 
C 1286 4480 294 3507 294 2179 
C 294 858 1267 -128 2394 -128 
C 2912 -128 3418 57 3616 425 
C 3725 161 3904 -20 3936 -20 
C 3968 -20 3974 -13 3974 102 
L 3974 1258 
z
" id="CMR17-47" transform="scale(0.015625)"/>
       <path d="M 992 3961 
C 992 4102 877 4224 730 4224 
C 589 4224 467 4108 467 3961 
C 467 3820 582 3699 730 3699 
C 870 3699 992 3814 992 3961 
z
M 243 2745 
L 243 2579 
C 602 2579 653 2540 653 2231 
L 653 443 
C 653 198 627 166 218 166 
L 218 0 
C 371 12 646 12 806 12 
C 960 12 1222 12 1370 0 
L 1370 166 
C 992 166 979 205 979 436 
L 979 2816 
L 243 2745 
z
" id="CMR17-69" transform="scale(0.015625)"/>
      </defs>
      <use transform="scale(0.996264)" xlink:href="#CMR17-4d"/>
      <use transform="translate(84.686941 0)scale(0.996264)" xlink:href="#CMR17-65"/>
      <use transform="translate(125.172601 0)scale(0.996264)" xlink:href="#CMR17-61"/>
      <use transform="translate(170.863078 0)scale(0.996264)" xlink:href="#CMR17-6e"/>
      <use transform="translate(251.834414 0)scale(0.996264)" xlink:href="#CMR17-44"/>
      <use transform="translate(322.22797 0)scale(0.996264)" xlink:href="#CMR17-65"/>
      <use transform="translate(362.713631 0)scale(0.996264)" xlink:href="#CMR17-63"/>
      <use transform="translate(403.199291 0)scale(0.996264)" xlink:href="#CMR17-72"/>
      <use transform="translate(438.480059 0)scale(0.996264)" xlink:href="#CMR17-65"/>
      <use transform="translate(478.965719 0)scale(0.996264)" xlink:href="#CMR17-61"/>
      <use transform="translate(524.656196 0)scale(0.996264)" xlink:href="#CMR17-73"/>
      <use transform="translate(560.457534 0)scale(0.996264)" xlink:href="#CMR17-65"/>
      <use transform="translate(631.019161 0)scale(0.996264)" xlink:href="#CMR17-47"/>
      <use transform="translate(703.374507 0)scale(0.996264)" xlink:href="#CMR17-69"/>
      <use transform="translate(728.245565 0)scale(0.996264)" xlink:href="#CMR17-6e"/>
      <use transform="translate(779.140935 0)scale(0.996264)" xlink:href="#CMR17-69"/>
     </g>
    </g>
   </g>
   <g id="line2d_127">
    <path clip-path="url(#p14b551d0b5)" style="fill:none;stroke:#424242;stroke-linecap:square;stroke-width:1.8;"/>
   </g>
   <g id="line2d_128">
    <path clip-path="url(#p14b551d0b5)" style="fill:none;stroke:#424242;stroke-linecap:square;stroke-width:1.8;"/>
   </g>
   <g id="line2d_129">
    <path clip-path="url(#p14b551d0b5)" style="fill:none;stroke:#424242;stroke-linecap:square;stroke-width:1.8;"/>
   </g>
   <g id="line2d_130">
    <path clip-path="url(#p14b551d0b5)" style="fill:none;stroke:#424242;stroke-linecap:square;stroke-width:1.8;"/>
   </g>
   <g id="line2d_131">
    <path clip-path="url(#p14b551d0b5)" style="fill:none;stroke:#424242;stroke-linecap:square;stroke-width:1.8;"/>
   </g>
   <g id="line2d_132">
    <path clip-path="url(#p14b551d0b5)" style="fill:none;stroke:#424242;stroke-linecap:square;stroke-width:1.8;"/>
   </g>
   <g id="line2d_133">
    <path clip-path="url(#p14b551d0b5)" style="fill:none;stroke:#424242;stroke-linecap:square;stroke-width:1.8;"/>
   </g>
   <g id="line2d_134">
    <path clip-path="url(#p14b551d0b5)" style="fill:none;stroke:#424242;stroke-linecap:square;stroke-width:1.8;"/>
   </g>
   <g id="patch_24">
    <path d="M 470.092462 329.76 
L 470.092462 3.6 
" style="fill:none;stroke:#000000;stroke-linecap:square;stroke-linejoin:miter;stroke-width:0.5;"/>
   </g>
   <g id="patch_25">
    <path d="M 825.183371 329.76 
L 825.183371 3.6 
" style="fill:none;stroke:#000000;stroke-linecap:square;stroke-linejoin:miter;stroke-width:0.5;"/>
   </g>
   <g id="patch_26">
    <path d="M 470.092462 329.76 
L 825.183371 329.76 
" style="fill:none;stroke:#000000;stroke-linecap:square;stroke-linejoin:miter;stroke-width:0.5;"/>
   </g>
   <g id="patch_27">
    <path d="M 470.092462 3.6 
L 825.183371 3.6 
" style="fill:none;stroke:#000000;stroke-linecap:square;stroke-linejoin:miter;stroke-width:0.5;"/>
   </g>
   <g id="text_25">
    <!-- SOC -->
    <g transform="translate(478.249306 145.200257)scale(0.14 -0.14)">
     <use transform="scale(0.996264)" xlink:href="#CMR17-53"/>
     <use transform="translate(50.89537 0)scale(0.996264)" xlink:href="#CMR17-4f"/>
     <use transform="translate(122.610158 0)scale(0.996264)" xlink:href="#CMR17-43"/>
    </g>
   </g>
   <g id="text_26">
    <!-- CEC -->
    <g transform="translate(522.162673 171.07108)scale(0.14 -0.14)">
     <use transform="scale(0.996264)" xlink:href="#CMR17-43"/>
     <use transform="translate(66.509881 0)scale(0.996264)" xlink:href="#CMR17-45"/>
     <use transform="translate(129.096181 0)scale(0.996264)" xlink:href="#CMR17-43"/>
    </g>
   </g>
   <g id="text_27">
    <!-- BIO1 -->
    <g transform="translate(565.034012 67.851148)scale(0.14 -0.14)">
     <use transform="scale(0.996264)" xlink:href="#CMR17-42"/>
     <use transform="translate(65.188754 0)scale(0.996264)" xlink:href="#CMR17-49"/>
     <use transform="translate(97.827164 0)scale(0.996264)" xlink:href="#CMR17-4f"/>
     <use transform="translate(169.541952 0)scale(0.996264)" xlink:href="#CMR17-31"/>
    </g>
   </g>
   <g id="text_28">
    <!-- BIO8 -->
    <g transform="translate(609.420376 20.813172)scale(0.14 -0.14)">
     <use transform="scale(0.996264)" xlink:href="#CMR17-42"/>
     <use transform="translate(65.188754 0)scale(0.996264)" xlink:href="#CMR17-49"/>
     <use transform="translate(97.827164 0)scale(0.996264)" xlink:href="#CMR17-4f"/>
     <use transform="translate(169.541952 0)scale(0.996264)" xlink:href="#CMR17-38"/>
    </g>
   </g>
   <g id="text_29">
    <!-- BIO10 -->
    <g transform="translate(650.392495 76.178077)scale(0.14 -0.14)">
     <use transform="scale(0.996264)" xlink:href="#CMR17-42"/>
     <use transform="translate(65.188754 0)scale(0.996264)" xlink:href="#CMR17-49"/>
     <use transform="translate(97.827164 0)scale(0.996264)" xlink:href="#CMR17-4f"/>
     <use transform="translate(169.541952 0)scale(0.996264)" xlink:href="#CMR17-31"/>
     <use transform="translate(215.232429 0)scale(0.996264)" xlink:href="#CMR17-30"/>
    </g>
   </g>
   <g id="text_30">
    <!-- BIO13 -->
    <g transform="translate(694.778859 70.769124)scale(0.14 -0.14)">
     <use transform="scale(0.996264)" xlink:href="#CMR17-42"/>
     <use transform="translate(65.188754 0)scale(0.996264)" xlink:href="#CMR17-49"/>
     <use transform="translate(97.827164 0)scale(0.996264)" xlink:href="#CMR17-4f"/>
     <use transform="translate(169.541952 0)scale(0.996264)" xlink:href="#CMR17-31"/>
     <use transform="translate(215.232429 0)scale(0.996264)" xlink:href="#CMR17-33"/>
    </g>
   </g>
   <g id="text_31">
    <!-- BIO15 -->
    <g transform="translate(739.165223 137.54751)scale(0.14 -0.14)">
     <use transform="scale(0.996264)" xlink:href="#CMR17-42"/>
     <use transform="translate(65.188754 0)scale(0.996264)" xlink:href="#CMR17-49"/>
     <use transform="translate(97.827164 0)scale(0.996264)" xlink:href="#CMR17-4f"/>
     <use transform="translate(169.541952 0)scale(0.996264)" xlink:href="#CMR17-31"/>
     <use transform="translate(215.232429 0)scale(0.996264)" xlink:href="#CMR17-35"/>
    </g>
   </g>
   <g id="text_32">
    <!-- BIO19 -->
    <g transform="translate(783.551586 145.532586)scale(0.14 -0.14)">
     <use transform="scale(0.996264)" xlink:href="#CMR17-42"/>
     <use transform="translate(65.188754 0)scale(0.996264)" xlink:href="#CMR17-49"/>
     <use transform="translate(97.827164 0)scale(0.996264)" xlink:href="#CMR17-4f"/>
     <use transform="translate(169.541952 0)scale(0.996264)" xlink:href="#CMR17-31"/>
     <use transform="translate(215.232429 0)scale(0.996264)" xlink:href="#CMR17-39"/>
    </g>
   </g>
  </g>
 </g>
 <defs>
  <clipPath id="p6dc2f69771">
   <rect height="326.16" width="355.090909" x="43.983371" y="3.6"/>
  </clipPath>
  <clipPath id="p14b551d0b5">
   <rect height="326.16" width="355.090909" x="470.092462" y="3.6"/>
  </clipPath>
 </defs>
</svg>
